<svg xmlns="http://www.w3.org/2000/svg" width="1280" height="800" viewBox="0 0 1280 800" role="img" aria-label="Wireframe - Homepage">
  <rect width="1280" height="800" fill="#ffffff"/>
  <!-- Navbar -->
  <rect x="0" y="0" width="1280" height="72" fill="#f3f3f3"/>
  <rect x="24" y="18" width="180" height="36" fill="#d9d9d9" rx="6"/>
  <rect x="220" y="18" width="520" height="36" fill="#d9d9d9" rx="18"/>
  <rect x="760" y="18" width="80" height="36" fill="#d9d9d9" rx="8"/>
  <rect x="848" y="18" width="90" height="36" fill="#d9d9d9" rx="8"/>
  <rect x="946" y="18" width="90" height="36" fill="#d9d9d9" rx="8"/>
  <rect x="1044" y="18" width="90" height="36" fill="#d9d9d9" rx="8"/>
  <!-- Hero -->
  <rect x="24" y="96" width="1232" height="160" fill="#e9e9e9" rx="12"/>
  <rect x="48" y="128" width="580" height="32" fill="#d9d9d9" rx="6"/>
  <rect x="48" y="172" width="420" height="24" fill="#d9d9d9" rx="6"/>
  <rect x="48" y="208" width="180" height="36" fill="#d9d9d9" rx="18"/>
  <!-- Categories -->
  <rect x="24" y="280" width="1232" height="56" fill="#f3f3f3" rx="12"/>
  <!-- Masonry grid -->
  <rect x="24" y="352" width="380" height="260" fill="#e9e9e9" rx="12"/>
  <rect x="420" y="352" width="380" height="320" fill="#e9e9e9" rx="12"/>
  <rect x="816" y="352" width="440" height="220" fill="#e9e9e9" rx="12"/>
  <rect x="24" y="624" width="380" height="140" fill="#e9e9e9" rx="12"/>
  <rect x="420" y="688" width="380" height="140" fill="#e9e9e9" rx="12"/>
  <rect x="816" y="584" width="440" height="244" fill="#e9e9e9" rx="12"/>
</svg>
