<svg xmlns="http://www.w3.org/2000/svg" width="1280" height="800" viewBox="0 0 1280 800" role="img" aria-label="Wireframe - Photo Detail">
  <rect width="1280" height="800" fill="#ffffff"/>
  <!-- Modal container -->
  <rect x="160" y="80" width="960" height="640" fill="#f3f3f3" rx="12"/>
  <!-- Close -->
  <rect x="1080" y="96" width="24" height="24" fill="#d9d9d9" rx="4"/>
  <!-- Photo -->
  <rect x="184" y="120" width="520" height="560" fill="#e9e9e9" rx="12"/>
  <!-- Info -->
  <rect x="720" y="120" width="360" height="40" fill="#d9d9d9" rx="8"/>
  <rect x="720" y="172" width="300" height="24" fill="#d9d9d9" rx="6"/>
  <!-- Actions -->
  <rect x="720" y="212" width="100" height="36" fill="#d9d9d9" rx="8"/>
  <rect x="828" y="212" width="100" height="36" fill="#d9d9d9" rx="8"/>
  <rect x="936" y="212" width="100" height="36" fill="#d9d9d9" rx="8"/>
  <!-- Stats -->
  <rect x="720" y="268" width="180" height="24" fill="#d9d9d9" rx="6"/>
  <rect x="908" y="268" width="172" height="24" fill="#d9d9d9" rx="6"/>
  <rect x="720" y="300" width="180" height="24" fill="#d9d9d9" rx="6"/>
  <rect x="908" y="300" width="172" height="24" fill="#d9d9d9" rx="6"/>
  <!-- Comments list -->
  <rect x="720" y="340" width="360" height="180" fill="#e9e9e9" rx="12"/>
  <!-- Add comment -->
  <rect x="720" y="532" width="360" height="80" fill="#e9e9e9" rx="12"/>
  <rect x="720" y="620" width="120" height="36" fill="#d9d9d9" rx="18"/>
</svg>
