<svg xmlns="http://www.w3.org/2000/svg" width="1280" height="800" viewBox="0 0 1280 800" role="img" aria-label="Mockup - Homepage">
  <defs>
    <linearGradient id="hero" x1="0" y1="0" x2="1" y2="1">
      <stop offset="0%" stop-color="#667eea"/>
      <stop offset="100%" stop-color="#764ba2"/>
    </linearGradient>
  </defs>
  <rect width="1280" height="800" fill="#ffffff"/>
  <!-- Navbar -->
  <rect x="0" y="0" width="1280" height="72" fill="#ffffff"/>
  <rect x="0" y="72" width="1280" height="1" fill="#e0e0e0"/>
  <text x="72" y="46" font-family="Inter, Segoe UI, Roboto" font-size="20" font-weight="700" fill="#e60023">Shutterly</text>
  <rect x="220" y="18" width="520" height="36" fill="#f5f5f5" rx="18"/>
  <rect x="760" y="18" width="100" height="36" fill="#f5f5f5" rx="8"/>
  <rect x="870" y="18" width="100" height="36" fill="#f5f5f5" rx="8"/>
  <rect x="980" y="18" width="100" height="36" fill="#e60023" rx="18"/>
  <rect x="1090" y="18" width="100" height="36" fill="#f5f5f5" rx="18"/>
  <!-- Hero -->
  <rect x="24" y="96" width="1232" height="160" fill="url(#hero)" rx="12"/>
  <text x="48" y="150" font-size="36" font-weight="700" font-family="Inter" fill="#ffffff">Discover Beautiful Photography</text>
  <text x="48" y="186" font-size="18" font-family="Inter" fill="#ffffff" opacity="0.9">Get inspired by millions of photos worldwide</text>
  <rect x="48" y="210" width="184" height="36" fill="#ffffff" rx="18"/>
  <!-- Categories -->
  <rect x="24" y="280" width="1232" height="56" fill="#ffffff" rx="12"/>
  <rect x="24" y="337" width="1232" height="1" fill="#e0e0e0"/>
  <!-- Masonry grid -->
  <rect x="24" y="352" width="380" height="260" fill="#ddd" rx="12"/>
  <rect x="420" y="352" width="380" height="320" fill="#ccc" rx="12"/>
  <rect x="816" y="352" width="440" height="220" fill="#bbb" rx="12"/>
  <rect x="24" y="624" width="380" height="140" fill="#ccc" rx="12"/>
  <rect x="420" y="688" width="380" height="140" fill="#ddd" rx="12"/>
  <rect x="816" y="584" width="440" height="244" fill="#ccc" rx="12"/>
</svg>
